<?xml version="1.0" standalone="no"?>
<svg xmlns:xlink="http://www.w3.org/1999/xlink" id="wave" style="transform:rotate(0deg); transition: 0.3s" viewBox="0 0 1440 440" version="1.1" xmlns="http://www.w3.org/2000/svg"><defs><linearGradient id="sw-gradient-0" x1="0" x2="0" y1="1" y2="0"><stop stop-color="rgba(13, 94, 244, 1)" offset="0%"/><stop stop-color="rgba(158.399, 181.207, 223.445, 1)" offset="100%"/></linearGradient></defs><path style="transform:translate(0, 0px); opacity:1" fill="url(#sw-gradient-0)" d="M0,220L40,220C80,220,160,220,240,234.7C320,249,400,279,480,293.3C560,308,640,308,720,286C800,264,880,220,960,176C1040,132,1120,88,1200,58.7C1280,29,1360,15,1440,36.7C1520,59,1600,117,1680,161.3C1760,205,1840,235,1920,220C2000,205,2080,147,2160,139.3C2240,132,2320,176,2400,183.3C2480,191,2560,161,2640,139.3C2720,117,2800,103,2880,102.7C2960,103,3040,117,3120,132C3200,147,3280,161,3360,146.7C3440,132,3520,88,3600,117.3C3680,147,3760,249,3840,308C3920,367,4000,381,4080,381.3C4160,381,4240,367,4320,344.7C4400,323,4480,293,4560,264C4640,235,4720,205,4800,198C4880,191,4960,205,5040,198C5120,191,5200,161,5280,168.7C5360,176,5440,220,5520,227.3C5600,235,5680,205,5720,190.7L5760,176L5760,440L5720,440C5680,440,5600,440,5520,440C5440,440,5360,440,5280,440C5200,440,5120,440,5040,440C4960,440,4880,440,4800,440C4720,440,4640,440,4560,440C4480,440,4400,440,4320,440C4240,440,4160,440,4080,440C4000,440,3920,440,3840,440C3760,440,3680,440,3600,440C3520,440,3440,440,3360,440C3280,440,3200,440,3120,440C3040,440,2960,440,2880,440C2800,440,2720,440,2640,440C2560,440,2480,440,2400,440C2320,440,2240,440,2160,440C2080,440,2000,440,1920,440C1840,440,1760,440,1680,440C1600,440,1520,440,1440,440C1360,440,1280,440,1200,440C1120,440,1040,440,960,440C880,440,800,440,720,440C640,440,560,440,480,440C400,440,320,440,240,440C160,440,80,440,40,440L0,440Z"/></svg>